<?xml version="1.0" encoding="utf-8"?>
<!-- Generator: Adobe Illustrator 23.0.1, SVG Export Plug-In . SVG Version: 6.00 Build 0)  -->
<svg version="1.1" id="Слой_1" xmlns="http://www.w3.org/2000/svg" xmlns:xlink="http://www.w3.org/1999/xlink" x="0px" y="0px"
	 viewBox="0 0 299 119" style="enable-background:new 0 0 299 119;" xml:space="preserve">
<style type="text/css">
	.st0{fill:#262626;}
</style>
<g>
	<g>
		<path class="st0" d="M17.23,36.18l3.81-0.07c4.82,0,8.47,1.17,10.94,3.52c2.47,2.34,3.7,5.3,3.7,8.87c0,2.53-0.59,4.73-1.78,6.6
			c-1.18,1.87-2.67,3.28-4.44,4.23c-1.78,0.95-4.15,1.43-7.11,1.43c-0.67,0-1.51-0.04-2.54-0.11c-1.83-0.15-2.85-0.22-3.07-0.22
			c-4.05,0-6.43,0.04-7.14,0.13c-0.41,0-0.61-0.1-0.61-0.31c0-0.14,0.07-0.24,0.22-0.29c0.15-0.05,0.6-0.12,1.37-0.22
			c0.99-0.14,1.68-0.53,2.08-1.19c0.4-0.65,0.65-2.69,0.75-6.11l0.3-9.8c0-1.14-0.08-2.23-0.23-3.29c-0.15-1.06-0.4-1.74-0.72-2.04
			c-0.33-0.3-0.85-0.51-1.56-0.62c-0.52-0.07-0.78-0.22-0.78-0.43c0-0.26,0.13-0.39,0.39-0.39c0.25,0,1,0.05,2.27,0.16
			C14.34,36.13,15.72,36.18,17.23,36.18z M16.58,54.06c0,1.63,0.11,2.79,0.32,3.49c0.22,0.7,0.68,1.27,1.39,1.72
			c0.71,0.45,1.85,0.68,3.41,0.68c2.25,0,4.07-0.53,5.46-1.59c1.39-1.06,2.48-2.47,3.27-4.24c0.78-1.76,1.18-3.64,1.18-5.63
			c0-2.94-0.89-5.6-2.68-7.98c-1.79-2.38-4.57-3.57-8.35-3.57c-1.68,0-2.66,0.06-2.93,0.17c-0.28,0.11-0.42,0.44-0.42,0.98
			c0,0.48-0.04,1.34-0.13,2.57c-0.12,1.8-0.2,3.21-0.24,4.22l-0.17,5.09C16.62,52.35,16.58,53.72,16.58,54.06z"/>
	</g>
	<g>
		<path class="st0" d="M58.45,36.39c0.36,1.38,0.71,3.32,1.05,5.81c-0.06,0.1-0.13,0.15-0.2,0.15c-0.08,0-0.18-0.05-0.27-0.15
			c-0.85-1.37-1.67-2.41-2.44-3.13c-0.78-0.72-1.56-1.22-2.34-1.53c-0.78-0.3-2.13-0.45-4.05-0.45c-1.8,0-3.23,0.1-4.28,0.31
			c-0.1,0.12-0.15,0.35-0.15,0.68c0,0.09-0.01,0.24-0.04,0.46c-0.12,0.99-0.19,3.66-0.19,8.02c0,0.18,0.01,0.44,0.04,0.78
			c0.94,0.04,1.58,0.06,1.93,0.06c1.56,0,2.68-0.23,3.38-0.7c0.7-0.46,1.31-1.47,1.82-3c0.09-0.26,0.21-0.39,0.37-0.39
			c0.23,0,0.35,0.18,0.35,0.54l-0.07,0.74c-0.1,0.98-0.15,1.98-0.15,3.02c0,1.68,0.03,3.2,0.09,4.54c0,0.42-0.11,0.63-0.34,0.63
			c-0.17,0-0.28-0.15-0.34-0.44c-0.26-1.46-0.81-2.5-1.63-3.15c-0.83-0.64-2.63-0.96-5.4-0.96c-0.04,0.9-0.06,2.36-0.06,4.37
			c0,2.6,0.09,4.26,0.28,4.96c0.19,0.7,0.63,1.26,1.33,1.68c0.7,0.41,1.9,0.62,3.57,0.62c4.8,0,7.9-1.65,9.3-4.96
			c0.17-0.41,0.35-0.61,0.53-0.61c0.2,0,0.29,0.14,0.29,0.41c0,0.15-0.03,0.31-0.09,0.48c-0.07,0.23-0.25,1.11-0.54,2.63
			c-0.06,0.32-0.3,1.28-0.7,2.89l-7.76-0.02c-1.11,0-2.74-0.05-4.9-0.14c-2.15-0.09-4.06-0.14-5.72-0.15
			c-1.66-0.01-2.53-0.04-2.6-0.1c-0.07-0.06-0.11-0.13-0.11-0.2c0-0.25,0.2-0.37,0.61-0.37c1.37,0,2.27-0.36,2.7-1.09
			c0.43-0.73,0.65-2.5,0.65-5.31l-0.02-3.79l0.06-3.55c0-0.71-0.04-2.07-0.12-4.06c-0.08-1.99-0.15-3.13-0.22-3.41
			c-0.07-0.28-0.26-0.56-0.57-0.84c-0.31-0.28-1.01-0.56-2.08-0.84c-0.32-0.09-0.48-0.22-0.48-0.41c0-0.22,0.22-0.33,0.65-0.33
			l3.78,0.2c1.33,0.06,4.61,0.09,9.83,0.09C56.62,36.37,58.37,36.38,58.45,36.39z"/>
	</g>
	<g>
		<path class="st0" d="M134.67,36.39c0.36,1.38,0.71,3.32,1.05,5.81c-0.06,0.1-0.13,0.15-0.2,0.15c-0.08,0-0.18-0.05-0.27-0.15
			c-0.85-1.37-1.67-2.41-2.44-3.13c-0.78-0.72-1.56-1.22-2.34-1.53c-0.78-0.3-2.13-0.45-4.05-0.45c-1.8,0-3.23,0.1-4.28,0.31
			c-0.1,0.12-0.15,0.35-0.15,0.68c0,0.09-0.01,0.24-0.04,0.46c-0.12,0.99-0.19,3.66-0.19,8.02c0,0.18,0.01,0.44,0.04,0.78
			c0.94,0.04,1.58,0.06,1.93,0.06c1.56,0,2.68-0.23,3.38-0.7c0.7-0.46,1.31-1.47,1.82-3c0.09-0.26,0.21-0.39,0.37-0.39
			c0.23,0,0.35,0.18,0.35,0.54l-0.07,0.74c-0.1,0.98-0.15,1.98-0.15,3.02c0,1.68,0.03,3.2,0.09,4.54c0,0.42-0.11,0.63-0.34,0.63
			c-0.17,0-0.28-0.15-0.34-0.44c-0.26-1.46-0.81-2.5-1.63-3.15c-0.83-0.64-2.63-0.96-5.4-0.96c-0.04,0.9-0.06,2.36-0.06,4.37
			c0,2.6,0.09,4.26,0.28,4.96c0.19,0.7,0.63,1.26,1.33,1.68c0.7,0.41,1.9,0.62,3.57,0.62c4.8,0,7.9-1.65,9.3-4.96
			c0.17-0.41,0.35-0.61,0.53-0.61c0.2,0,0.29,0.14,0.29,0.41c0,0.15-0.03,0.31-0.09,0.48c-0.07,0.23-0.25,1.11-0.54,2.63
			c-0.06,0.32-0.3,1.28-0.7,2.89l-7.76-0.02c-1.11,0-2.74-0.05-4.9-0.14c-2.15-0.09-4.06-0.14-5.72-0.15
			c-1.66-0.01-2.53-0.04-2.6-0.1c-0.07-0.06-0.11-0.13-0.11-0.2c0-0.25,0.2-0.37,0.61-0.37c1.37,0,2.27-0.36,2.7-1.09
			c0.43-0.73,0.65-2.5,0.65-5.31l-0.02-3.79l0.06-3.55c0-0.71-0.04-2.07-0.12-4.06c-0.08-1.99-0.15-3.13-0.22-3.41
			c-0.07-0.28-0.26-0.56-0.57-0.84s-1.01-0.56-2.08-0.84c-0.32-0.09-0.48-0.22-0.48-0.41c0-0.22,0.22-0.33,0.65-0.33l3.78,0.2
			c1.33,0.06,4.61,0.09,9.83,0.09C132.84,36.37,134.59,36.38,134.67,36.39z"/>
	</g>
	<g>
		<path class="st0" d="M153.78,47.98c1.71,0.74,2.9,1.52,3.58,2.33c0.67,0.81,1.16,2.06,1.48,3.75c0.42,2.22,0.99,3.71,1.73,4.48
			c0.74,0.76,1.7,1.17,2.9,1.22c0.33,0.02,0.5,0.14,0.5,0.36c0,0.22-0.19,0.32-0.57,0.32c-3.46,0-5.55-0.11-6.28-0.34
			c-0.73-0.23-1.28-1.49-1.64-3.79c-0.33-2.23-0.68-3.87-1.05-4.9c-0.36-1.03-0.94-1.82-1.74-2.37c-0.8-0.55-2.04-0.82-3.73-0.82
			c-0.64,0-1.37,0.07-2.18,0.2c-0.06,0.78-0.09,1.58-0.09,2.42c0,3.17,0.04,5.21,0.13,6.14c0.09,0.93,0.35,1.61,0.79,2.03
			c0.44,0.43,1.17,0.65,2.19,0.67c0.44,0.01,0.67,0.12,0.67,0.32c0,0.24-0.27,0.36-0.81,0.36h-9.16c-0.53,0-0.8-0.12-0.8-0.36
			c0-0.22,0.21-0.32,0.63-0.32c0.94,0,1.59-0.14,1.95-0.43c0.36-0.28,0.65-0.72,0.86-1.32c0.21-0.6,0.31-1.68,0.31-3.25l-0.04-3.77
			l0.02-5.75c0-2.93-0.06-4.88-0.19-5.83c-0.13-0.95-0.36-1.59-0.69-1.91s-1.1-0.58-2.31-0.77c-0.26-0.04-0.39-0.14-0.39-0.31
			c0-0.2,0.26-0.3,0.78-0.3l10.96-0.24c3.02,0,5.22,0.58,6.58,1.74c1.36,1.16,2.05,2.58,2.05,4.25c0,1.06-0.27,2.03-0.82,2.9
			c-0.55,0.88-1.2,1.51-1.95,1.91C156.66,47.03,155.45,47.48,153.78,47.98z M146.77,47.51c2.37-0.05,4.15-0.22,5.33-0.5
			c1.18-0.28,2.19-0.91,3.03-1.87c0.83-0.96,1.25-2.1,1.25-3.42c0-1.39-0.46-2.61-1.39-3.65c-0.93-1.04-2.41-1.55-4.44-1.55
			c-1.11,0-2.34,0.15-3.68,0.44c-0.15,3.39-0.22,6.1-0.22,8.11C146.64,45.76,146.68,46.57,146.77,47.51z"/>
	</g>
	<g>
		<path class="st0" d="M184.47,47.7l0.17-5.15c0-2.26-0.23-3.74-0.68-4.45c-0.45-0.71-1.21-1.06-2.27-1.06
			c-0.62,0-0.93-0.13-0.93-0.39c0-0.23,0.19-0.35,0.56-0.35l5.39,0.19l4.58-0.09c0.36,0,0.54,0.11,0.54,0.33
			c0,0.2-0.12,0.3-0.35,0.3c-0.94,0-1.67,0.14-2.18,0.41c-0.52,0.27-0.86,0.73-1.03,1.39c-0.17,0.65-0.3,2.52-0.41,5.6
			c-0.1,3.08-0.16,5.32-0.16,6.71l-0.06,4.55c0,1.42,0.14,2.34,0.41,2.77c0.27,0.43,0.68,0.76,1.21,1c0.54,0.24,1.09,0.39,1.66,0.45
			c0.39,0.05,0.59,0.17,0.59,0.35c0,0.2-0.17,0.3-0.5,0.3l-5.71-0.15l-3.73,0.13c-0.43,0-0.65-0.11-0.65-0.33
			c0-0.19,0.15-0.28,0.46-0.3c0.99-0.06,1.63-0.19,1.93-0.39c0.3-0.2,0.55-0.57,0.73-1.13c0.19-0.56,0.29-1.49,0.31-2.81l0.09-6.72
			c-1.06-0.07-2.14-0.11-3.23-0.11c-4.77,0-7.79,0.09-9.07,0.26c-0.1,2.37-0.15,4.31-0.15,5.84c0,1.71,0.04,2.77,0.11,3.16
			c0.07,0.39,0.31,0.76,0.69,1.1c0.39,0.34,0.92,0.58,1.6,0.71c0.42,0.09,0.63,0.22,0.63,0.41c0,0.22-0.14,0.33-0.41,0.33
			c-0.09,0-0.21-0.01-0.37-0.04c-0.67-0.07-2.05-0.11-4.15-0.11c-2.28,0-3.68,0.05-4.2,0.16c-0.11,0.01-0.22,0.02-0.33,0.02
			c-0.28,0-0.43-0.1-0.43-0.29c0-0.22,0.19-0.35,0.57-0.4c0.95-0.11,1.63-0.38,2.04-0.79c0.41-0.42,0.69-1.99,0.84-4.71
			c0.15-2.72,0.23-6.03,0.23-9.92c0-3.17-0.15-5.16-0.44-5.99c-0.3-0.83-1.02-1.28-2.17-1.37c-0.26-0.03-0.39-0.13-0.39-0.3
			c0-0.25,0.27-0.38,0.8-0.38l7.46-0.11c0.53,0,0.85,0.01,0.95,0.04c0.1,0.03,0.16,0.13,0.16,0.3c0,0.19-0.16,0.31-0.48,0.34
			c-1.22,0.12-1.97,0.35-2.23,0.67c-0.27,0.32-0.4,2.32-0.4,6.01c0,0.38,0.02,1.72,0.06,4.02c1.26,0.1,2.73,0.15,4.44,0.15
			C178.79,47.84,181.42,47.8,184.47,47.7z"/>
	</g>
	<g>
		<path class="st0" d="M242.29,60.49c-0.61,0.02-0.95,0.04-1.04,0.04c-0.46,0-1.28-0.02-2.48-0.06c-1.2-0.04-3.69-0.07-7.47-0.07
			h-4.71c-0.17,0-0.8,0.03-1.89,0.09c-1.09,0.06-1.75,0.09-1.98,0.09c-0.94,0-1.41-0.12-1.41-0.37c0-0.2,0.19-0.3,0.56-0.31
			c1.2-0.07,2.03-0.33,2.5-0.77c0.47-0.44,0.79-1.07,0.96-1.89c0.17-0.82,0.26-3.04,0.26-6.66l0.02-6.63c0-2.15-0.1-3.65-0.29-4.5
			c-0.19-0.85-0.59-1.5-1.18-1.95c-0.6-0.45-1.27-0.71-2.03-0.77c-0.39-0.04-0.59-0.17-0.59-0.4c0-0.23,0.18-0.34,0.54-0.34
			c0.09,0,0.25,0.01,0.48,0.02c1.96,0.12,4.26,0.19,6.89,0.19l3.26-0.06c0.33,0,0.5,0.12,0.5,0.37c0,0.22-0.18,0.33-0.54,0.33
			c-0.88,0-1.61,0.17-2.19,0.52c-0.59,0.35-0.97,0.74-1.17,1.19c-0.19,0.45-0.29,1.33-0.29,2.64l-0.15,8.75l0.04,4.89
			c0,1.52,0.06,2.5,0.19,2.96c0.13,0.46,0.4,0.87,0.81,1.23c0.41,0.36,1.15,0.55,2.22,0.55c0.09,0,1.19-0.04,3.31-0.11
			c1.69-0.23,3.21-1.06,4.55-2.48c1.35-1.42,2.24-2.69,2.69-3.81c0.13-0.32,0.3-0.48,0.5-0.48c0.21,0,0.31,0.15,0.31,0.44
			c0,0.35-0.18,1.58-0.53,3.71C242.6,58.96,242.38,60.18,242.29,60.49z"/>
	</g>
	<g>
		<path class="st0" d="M258.54,37.48c0.33-0.33,0.56-0.68,0.67-1.04c0.1-0.3,0.24-0.44,0.43-0.44c0.1,0,0.21,0.06,0.33,0.19
			c0.09,0.44,0.21,1.34,0.37,2.68l0.44,3.48c0,0.22-0.14,0.33-0.41,0.33c-0.15,0-0.28-0.12-0.39-0.37
			c-0.65-1.62-1.62-2.96-2.91-4.04c-1.28-1.06-2.68-1.59-4.2-1.59c-1.49,0-2.62,0.45-3.38,1.35c-0.76,0.9-1.14,1.86-1.14,2.87
			c0,1.23,0.41,2.18,1.24,2.83s2.53,1.39,5.11,2.22c1.9,0.59,3.32,1.17,4.27,1.72c0.94,0.56,1.74,1.33,2.38,2.33
			c0.64,1,0.96,2.07,0.96,3.22c0,1.95-0.81,3.7-2.42,5.24c-1.62,1.54-3.6,2.31-5.94,2.31c-2.11,0-4.23-0.66-6.37-1.98
			c-0.42,0.35-0.69,0.75-0.81,1.22c-0.1,0.39-0.26,0.59-0.48,0.59c-0.2,0-0.34-0.25-0.43-0.76c-0.09-0.51-0.27-2.9-0.54-7.18
			c0.05-0.15,0.18-0.22,0.39-0.22c0.19,0,0.33,0.14,0.44,0.41c1.9,4.78,4.55,7.16,7.96,7.16c1.69,0,3.01-0.51,3.97-1.53
			c0.96-1.02,1.43-2.19,1.43-3.51c0-0.91-0.26-1.75-0.77-2.52c-0.51-0.76-1.19-1.38-2.04-1.85c-0.85-0.47-2.18-0.99-4.01-1.57
			c-2.34-0.75-3.94-1.47-4.78-2.14c-0.85-0.67-1.47-1.43-1.86-2.28c-0.39-0.85-0.59-1.66-0.59-2.45c0-1.64,0.74-3.1,2.23-4.37
			c1.49-1.27,3.31-1.91,5.47-1.91c0.81,0,1.67,0.13,2.56,0.39C256.63,36.55,257.57,36.95,258.54,37.48z"/>
	</g>
	<g>
		<path class="st0" d="M275.18,37.18c-0.96-0.05-1.64-0.07-2.04-0.07c-2.67,0-4.6,0.56-5.8,1.67c-1.2,1.11-1.9,2.11-2.09,2.97
			c-0.06,0.31-0.23,0.46-0.5,0.46c-0.12,0-0.24-0.06-0.35-0.18c0.06-1.47,0.3-3.45,0.72-5.95c0.59-0.01,0.97-0.02,1.13-0.02
			c0.96,0,2.25,0.05,3.87,0.15c1.74,0.1,4.41,0.15,8,0.15c3.68,0,6.07-0.04,7.18-0.13c1.01-0.1,2.4-0.15,4.16-0.15
			c0.15,0.89,0.25,1.81,0.3,2.78c0.07,1.1,0.15,1.87,0.22,2.31c0.01,0.1,0.02,0.2,0.02,0.31c0,0.3-0.13,0.44-0.39,0.44
			c-0.16,0-0.29-0.05-0.4-0.16c-0.1-0.1-0.34-0.45-0.71-1.05c-0.64-1-1.31-1.76-2-2.27c-0.69-0.51-1.46-0.84-2.32-0.99
			c-0.85-0.15-2.57-0.25-5.17-0.3c-0.15,1.86-0.22,3.99-0.22,6.39c0,7.92,0.17,12.59,0.51,14.01c0.34,1.42,1.55,2.13,3.64,2.13
			c0.51,0,0.76,0.1,0.76,0.31c0,0.25-0.24,0.37-0.72,0.37h-11.38c-0.3,0-0.44-0.12-0.44-0.35c0-0.23,0.29-0.35,0.87-0.35
			c0.97,0,1.76-0.27,2.36-0.82c0.6-0.55,0.94-1.29,1.04-2.23c0.09-0.94,0.14-3.65,0.14-8.13C275.57,44.69,275.44,40.91,275.18,37.18
			z"/>
	</g>
	<g>
		<path class="st0" d="M118.49,83.3c-2.1,0-3.35-0.88-3.75-2.62l1.03-0.47c0.17,1.44,1.09,2.19,2.72,2.19c1.63,0,2.59-0.67,2.59-1.8
			c0-0.9-0.52-1.39-1.95-1.74l-1.65-0.41c-1.5-0.37-2.25-1.2-2.25-2.45c0-1.59,1.27-2.6,3.34-2.6c1.76,0,2.85,0.64,3.49,2.06
			l-0.97,0.6c-0.34-1.16-1.24-1.76-2.6-1.76c-1.35,0-2.14,0.6-2.14,1.63c0,0.77,0.49,1.22,1.65,1.54l1.93,0.52
			c1.61,0.43,2.3,1.2,2.3,2.47C122.22,82.17,120.76,83.3,118.49,83.3z"/>
		<path class="st0" d="M131.32,74.56v8.49h-1.11v-8.49h-3.32v-0.94h7.72v0.94H131.32z"/>
		<path class="st0" d="M147.72,79.49c-0.04,1.07-0.13,1.57-0.37,2.06c-0.56,1.12-1.8,1.74-3.52,1.74c-1.35,0-2.42-0.39-3.07-1.11
			c-0.21-0.22-0.37-0.49-0.49-0.77c-0.22-0.52-0.3-0.92-0.3-2.1v-5.7h1.11v4.98c0,0.47,0,0.9,0.02,1.27
			c0.04,0.73,0.22,1.26,0.54,1.65c0.47,0.54,1.29,0.84,2.29,0.84c0.84,0,1.63-0.28,2.1-0.75c0.24-0.26,0.45-0.69,0.54-1.09
			c0.07-0.36,0.09-0.69,0.09-1.97v-4.95h1.09v4.61C147.74,78.61,147.74,79.04,147.72,79.49z"/>
		<path class="st0" d="M160.01,82.53c-0.36,0.19-0.75,0.32-1.16,0.39c-0.64,0.09-1.12,0.13-2.36,0.13h-2.4v-9.42h2.6
			c1.42,0,1.93,0.04,2.6,0.19c1.84,0.43,2.92,2.1,2.92,4.48C162.22,80.32,161.45,81.82,160.01,82.53z M159.94,75.31
			c-0.28-0.28-0.62-0.47-1.01-0.58c-0.39-0.11-0.82-0.17-1.27-0.17h-2.44v7.55h1.26c0.49,0,0.88,0,1.2-0.02
			c0.97-0.07,1.72-0.3,2.23-0.71c0.73-0.6,1.14-1.74,1.14-3.09C161.04,77.09,160.63,75.97,159.94,75.31z"/>
		<path class="st0" d="M168.11,83.05v-9.42h1.12v9.42H168.11z"/>
		<path class="st0" d="M179.67,83.33c-2.74,0-4.55-2-4.55-4.98c0-3.04,1.84-5,4.63-5c2.75,0,4.52,1.89,4.52,4.82
			C184.26,81.29,182.46,83.33,179.67,83.33z M179.7,74.25c-2.06,0-3.37,1.57-3.37,4.05c0,2.55,1.27,4.12,3.32,4.12
			c2.08,0,3.39-1.56,3.39-4.07C183.04,75.88,181.71,74.25,179.7,74.25z"/>
	</g>
	<g>
		<path class="st0" d="M200.21,59.73c-0.56-1.93-0.84-3.82-0.84-5.66c0-1.31,0.25-2.73,0.76-4.28c0.51-1.54,1.31-2.87,2.41-3.98
			c1.1-1.11,2.48-1.67,4.14-1.67c2.19,0,3.97,1.04,5.33,3.12c1.36,2.08,2.04,4.5,2.04,7.25c0,2.32-0.44,4.41-1.33,6.27h3.1
			c1.33-1.97,2.01-4.13,2.01-6.47c0-2.86-1.02-5.41-3.05-7.64c-2.03-2.23-4.61-3.35-7.73-3.35c-2.23,0-4.23,0.59-6.01,1.77
			c-1.77,1.18-3.12,2.68-4.05,4.5c-0.92,1.82-1.39,3.49-1.39,5.01c0,2.37,0.49,4.42,1.46,6.16h3.51
			C200.44,60.45,200.32,60.1,200.21,59.73z"/>
	</g>
	<g>
		<path class="st0" d="M206.31,41.86c3.17,0,5.88-1.21,8.13-3.63c0.52-0.56,0.98-1.13,1.37-1.72h-3.1c-0.2,0.42-0.42,0.83-0.67,1.23
			c-1.33,2.16-3.11,3.24-5.33,3.24c-1.37,0-2.66-0.44-3.87-1.31c-0.97-0.71-1.73-1.76-2.28-3.16h-3.51
			c0.44,0.79,0.98,1.51,1.62,2.17C200.74,40.8,203.28,41.86,206.31,41.86z"/>
	</g>
	<g>
		<g>
			<path class="st0" d="M69.04,57.63l0.16-4.84c0.04-0.96,0.11-2.3,0.23-4.01c0.08-1.17,0.12-1.99,0.12-2.44
				c0-0.52,0.13-0.83,0.4-0.93c0.26-0.11,1.19-0.16,2.79-0.16c3.59,0,6.23,1.13,7.93,3.39c1.7,2.26,2.55,4.79,2.55,7.58
				c0,1.58-0.26,3.08-0.78,4.51h3.85c0.53-1.36,0.81-2.86,0.81-4.51c0-3.39-1.17-6.2-3.52-8.42c-2.34-2.23-5.81-3.34-10.39-3.34
				l-3.62,0.07c-1.43,0-2.75-0.05-3.95-0.15c-1.2-0.1-1.92-0.15-2.15-0.15c-0.25,0-0.37,0.12-0.37,0.37c0,0.2,0.25,0.33,0.74,0.4
				c0.68,0.11,1.18,0.3,1.49,0.59c0.31,0.29,0.54,0.93,0.69,1.94c0.15,1,0.22,2.04,0.22,3.12l-0.28,9.31
				c-0.01,0.27-0.02,0.52-0.03,0.77h3.05C68.96,60.07,68.99,59.04,69.04,57.63z"/>
		</g>
		<g>
			<path class="st0" d="M80.66,38.38c-1.7,2.26-4.34,3.39-7.93,3.39c-1.59,0-2.52-0.05-2.79-0.16c-0.26-0.11-0.4-0.42-0.4-0.93
				c0-0.46-0.04-1.27-0.12-2.44c-0.07-0.98-0.12-1.84-0.16-2.58h-3.08l0.02,0.71c0,1.08-0.07,2.12-0.22,3.12
				c-0.15,1-0.38,1.65-0.69,1.94c-0.31,0.29-0.81,0.48-1.49,0.59c-0.49,0.07-0.74,0.2-0.74,0.4c0,0.25,0.12,0.37,0.37,0.37
				c0.23,0,0.95-0.05,2.15-0.15c1.2-0.1,2.52-0.15,3.95-0.15l3.62,0.07c4.58,0,8.05-1.11,10.39-3.34c1.11-1.06,1.96-2.24,2.54-3.56
				h-3.86C81.84,36.61,81.31,37.52,80.66,38.38z"/>
		</g>
	</g>
	<g>
		<g>
			<path class="st0" d="M93.34,57.63l0.16-4.84c0.04-0.96,0.11-2.3,0.23-4.01c0.08-1.17,0.12-1.99,0.12-2.44
				c0-0.52,0.13-0.83,0.4-0.93c0.26-0.11,1.19-0.16,2.79-0.16c3.59,0,6.23,1.13,7.93,3.39c1.7,2.26,2.55,4.79,2.55,7.58
				c0,1.58-0.26,3.08-0.78,4.51h3.85c0.53-1.36,0.81-2.86,0.81-4.51c0-3.39-1.17-6.2-3.52-8.42c-2.34-2.23-5.81-3.34-10.39-3.34
				l-3.62,0.07c-1.43,0-2.75-0.05-3.95-0.15c-1.2-0.1-1.92-0.15-2.15-0.15c-0.25,0-0.37,0.12-0.37,0.37c0,0.2,0.25,0.33,0.74,0.4
				c0.68,0.11,1.18,0.3,1.49,0.59c0.31,0.29,0.54,0.93,0.69,1.94c0.15,1,0.22,2.04,0.22,3.12l-0.28,9.31
				c-0.01,0.27-0.02,0.52-0.03,0.77h3.05C93.26,60.07,93.29,59.04,93.34,57.63z"/>
		</g>
		<g>
			<path class="st0" d="M104.96,38.38c-1.7,2.26-4.34,3.39-7.93,3.39c-1.59,0-2.52-0.05-2.79-0.16c-0.26-0.11-0.4-0.42-0.4-0.93
				c0-0.46-0.04-1.27-0.12-2.44c-0.07-0.98-0.12-1.84-0.16-2.58h-3.08l0.02,0.71c0,1.08-0.07,2.12-0.22,3.12
				c-0.15,1-0.38,1.65-0.69,1.94c-0.31,0.29-0.81,0.48-1.49,0.59c-0.49,0.07-0.74,0.2-0.74,0.4c0,0.25,0.12,0.37,0.37,0.37
				c0.23,0,0.95-0.05,2.15-0.15c1.2-0.1,2.52-0.15,3.95-0.15l3.62,0.07c4.58,0,8.05-1.11,10.39-3.34c1.11-1.06,1.96-2.24,2.54-3.56
				h-3.86C106.14,36.61,105.61,37.52,104.96,38.38z"/>
		</g>
	</g>
</g>
</svg>
